<svg width="32" height="32" fill="none" xmlns="http://www.w3.org/2000/svg"><circle cx="16" cy="16" r="16" fill="#F6F7FA"/><path fill-rule="evenodd" clip-rule="evenodd" d="M17.424 16.432v-.002c-.08.006-.491.03-1.408.03-.732 0-1.247-.02-1.429-.03v.003c-2.818-.124-4.92-.615-4.92-1.202 0-.586 2.102-1.077 4.92-1.203v1.916c.184.013.712.044 1.441.044.875 0 1.314-.036 1.396-.043v-1.916c2.812.126 4.91.616 4.91 1.202 0 .587-2.098 1.076-4.91 1.2Zm0-2.602v-1.715h3.924V9.5H10.662v2.615h3.924v1.714C11.398 13.976 9 14.608 9 15.364c0 .757 2.398 1.388 5.587 1.535v5.496h2.837v-5.497C20.608 16.752 23 16.12 23 15.364s-2.392-1.387-5.576-1.534Z" fill="#26A17B"/></svg>