<svg width="32" height="32" fill="none" xmlns="http://www.w3.org/2000/svg"><circle cx="16" cy="16" r="16" fill="#F6F7FA"/><path d="M22.056 14.432c.252-1.68-1.029-2.585-2.779-3.188l.568-2.278-1.386-.344-.553 2.217c-.364-.091-.738-.176-1.111-.261l.557-2.232L15.966 8l-.567 2.277c-.302-.069-.599-.136-.886-.208l.002-.008-1.912-.477-.37 1.48s1.03.236 1.008.25c.562.141.663.513.646.808l-.647 2.594c.039.01.088.024.145.046l-.147-.036-.906 3.635c-.07.17-.244.426-.637.329.015.02-1.007-.251-1.007-.251L10 20.025l1.805.45c.335.084.664.172.987.255l-.573 2.303 1.385.345.567-2.277c.379.102.746.196 1.106.286l-.567 2.268 1.386.345.574-2.299c2.364.448 4.142.267 4.89-1.87.603-1.722-.03-2.716-1.274-3.363.906-.209 1.588-.804 1.77-2.036Zm-3.168 4.442c-.427 1.722-3.327.79-4.267.558l.762-3.052c.94.235 3.954.7 3.505 2.494Zm.43-4.466c-.391 1.566-2.804.77-3.586.575l.69-2.768c.782.195 3.303.559 2.895 2.193Z" fill="#F7931A"/></svg>